# Wavefront OBJ exported by MilkShape 3D

v 3.596171 3.200000 -6.025347
v 5.996171 0.000001 -10.025339
v -3.603829 3.200000 -6.025347
v -6.003829 0.000001 -10.025337
v -3.603828 4.000000 5.974646
v -6.003828 0.000001 9.974651
v 3.596172 4.000000 5.974646
v 5.996172 0.000001 9.974651
v 8.414353 1.000000 -12.025335
v 8.414353 -1.000000 -12.025335
v 3.614352 1.000000 -12.025333
v 3.614352 -1.000000 -12.025333
v 3.614354 1.000000 11.974655
v 3.614354 -1.000000 11.974655
v 8.414355 1.000000 11.974653
v 8.414355 -1.000000 11.974653
v -3.585648 1.000000 -12.025333
v -3.585648 -1.000000 -12.025333
v -8.385646 1.000000 -12.025333
v -8.385646 -1.000000 -12.025333
v -8.385644 1.000000 11.974655
v -8.385644 -1.000000 11.974655
v -3.585645 1.000000 11.974655
v -3.585645 -1.000000 11.974655
v 1.860127 3.320910 -2.994103
v -0.003828 3.274760 -3.521598
v 1.091777 4.393363 -2.939756
v -0.003828 5.223991 -2.004215
v -1.099434 4.393363 -2.939756
v -1.867784 3.320910 -2.994103
v 2.864505 4.084124 -1.812914
v 3.012115 4.697883 -0.087113
v 1.768899 5.202728 -1.231072
v 1.768899 5.393705 0.951802
v -0.003828 5.548900 1.709510
v -0.003828 5.702944 -0.175044
v -1.776556 5.202728 -1.231072
v -1.776555 5.393705 0.951802
v -3.019772 4.697883 -0.087112
v -2.872162 4.084124 -1.812913
v -3.549283 3.583767 0.010360
v -3.019772 2.469648 0.107834
v -2.872162 2.774401 -1.698328
v -2.872161 4.393131 1.719050
v -1.867784 3.846624 3.014829
v -2.872161 3.083408 1.833636
v -1.099434 4.893346 2.775078
v 1.091778 4.893346 2.775078
v 1.860128 3.846624 3.014829
v -0.003828 3.892774 3.542326
v 1.091778 2.774169 2.960482
v -0.003828 1.943541 2.024938
v -1.099434 2.774169 2.960482
v -1.776555 1.964804 1.251793
v -0.003828 1.464588 0.195764
v -0.003828 1.618631 -1.688788
v -1.776556 1.773827 -0.931081
v 1.768899 1.964804 1.251792
v 3.012115 2.469648 0.107833
v 1.768899 1.773827 -0.931081
v 2.864505 2.774401 -1.698328
v 1.091778 2.274186 -2.754353
v -1.099434 2.274186 -2.754353
v 3.541626 3.583767 0.010360
v 2.864505 4.393131 1.719049
v 2.864505 3.083408 1.833635
v -0.426904 5.702178 11.180141
v -0.426904 5.543510 9.366560
v -0.426904 5.384843 7.552977
v -0.426904 5.226175 5.739392
v -0.426904 5.067507 3.925808
v -0.426905 4.908838 2.112223
v -0.426905 4.750170 0.298637
v -0.370222 5.491445 11.198578
v -0.370222 5.332777 9.384996
v -0.370223 5.174109 7.571413
v -0.370223 5.015441 5.757830
v -0.370223 4.856773 3.944245
v -0.370223 4.698105 2.130659
v -0.370223 4.539437 0.317073
v -0.215365 5.337177 11.212074
v -0.215366 5.178510 9.398495
v -0.215366 5.019842 7.584910
v -0.215366 4.861174 5.771326
v -0.215366 4.702506 3.957742
v -0.215366 4.543838 2.144156
v -0.215366 4.385170 0.330571
v -0.003827 5.280711 11.217014
v -0.003827 5.122044 9.403435
v -0.003827 4.963376 7.589850
v -0.003828 4.804708 5.776266
v -0.003828 4.646040 3.962682
v -0.003828 4.487372 2.149096
v -0.003828 4.328703 0.335511
v 0.207711 5.337177 11.212074
v 0.207711 5.178510 9.398495
v 0.207711 5.019842 7.584910
v 0.207711 4.861174 5.771326
v 0.207711 4.702506 3.957742
v 0.207710 4.543838 2.144156
v 0.207710 4.385170 0.330571
v 0.362568 5.491445 11.198578
v 0.362568 5.332777 9.384996
v 0.362568 5.174109 7.571413
v 0.362568 5.015441 5.757830
v 0.362567 4.856773 3.944245
v 0.362567 4.698105 2.130659
v 0.362567 4.539437 0.317073
v 0.419250 5.702178 11.180141
v 0.419249 5.543510 9.366560
v 0.419249 5.384843 7.552977
v 0.419249 5.226175 5.739392
v 0.419249 5.067507 3.925808
v 0.419249 4.908838 2.112223
v 0.419249 4.750170 0.298637
v 0.362568 5.912911 11.161705
v 0.362568 5.754244 9.348124
v 0.362568 5.595576 7.534540
v 0.362568 5.436908 5.720956
v 0.362567 5.278240 3.907372
v 0.362567 5.119572 2.093786
v 0.362567 4.960904 0.280200
v 0.207711 6.067179 11.148207
v 0.207711 5.908511 9.334627
v 0.207711 5.749844 7.521043
v 0.207711 5.591176 5.707458
v 0.207711 5.432508 3.893875
v 0.207710 5.273839 2.080289
v 0.207710 5.115171 0.266703
v -0.003827 6.123644 11.143267
v -0.003827 5.964977 9.329687
v -0.003827 5.806310 7.516103
v -0.003828 5.647641 5.702518
v -0.003828 5.488973 3.888935
v -0.003828 5.330305 2.075349
v -0.003828 5.171637 0.261763
v -0.215365 6.067179 11.148207
v -0.215366 5.908511 9.334627
v -0.215366 5.749844 7.521043
v -0.215366 5.591176 5.707458
v -0.215366 5.432508 3.893875
v -0.215366 5.273839 2.080289
v -0.215366 5.115171 0.266703
v -0.370222 5.912911 11.161705
v -0.370222 5.754244 9.348124
v -0.370223 5.595576 7.534540
v -0.370223 5.436908 5.720956
v -0.370223 5.278240 3.907372
v -0.370223 5.119572 2.093786
v -0.370223 4.960904 0.280200
v -0.003828 4.750170 0.298637
v -0.003827 5.702178 11.180141
# 152 vertices

vt 0.000000 1.000000
vt 0.000000 0.000000
vt 1.000000 1.000000
vt 1.000000 0.000000
vt 0.000000 0.166667
vt 0.083333 0.166667
vt 0.083333 0.000000
vt 0.000000 0.333333
vt 0.083333 0.333333
vt 0.000000 0.500000
vt 0.083333 0.500000
vt 0.000000 0.666667
vt 0.083333 0.666667
vt 0.000000 0.833333
vt 0.083333 0.833333
vt 0.083333 1.000000
vt 0.166667 0.000000
vt 0.166667 0.166667
vt 0.166667 0.333333
vt 0.166667 0.500000
vt 0.166667 0.666667
vt 0.166667 0.833333
vt 0.166667 1.000000
vt 0.250000 0.166667
vt 0.250000 0.000000
vt 0.250000 0.333333
vt 0.250000 0.500000
vt 0.250000 0.666667
vt 0.250000 0.833333
vt 0.250000 1.000000
vt 0.333333 0.000000
vt 0.333333 0.166667
vt 0.333333 0.333333
vt 0.333333 0.500000
vt 0.333333 0.666667
vt 0.333333 0.833333
vt 0.333333 1.000000
vt 0.416667 0.166667
vt 0.416667 0.000000
vt 0.416667 0.333333
vt 0.416667 0.500000
vt 0.416667 0.666667
vt 0.416667 0.833333
vt 0.416667 1.000000
vt 0.500000 0.000000
vt 0.500000 0.166667
vt 0.500000 0.333333
vt 0.500000 0.500000
vt 0.500000 0.666667
vt 0.500000 0.833333
vt 0.500000 1.000000
vt 0.583333 0.166667
vt 0.583333 0.000000
vt 0.583333 0.333333
vt 0.583333 0.500000
vt 0.583333 0.666667
vt 0.583333 0.833333
vt 0.583333 1.000000
vt 0.666667 0.000000
vt 0.666667 0.166667
vt 0.666667 0.333333
vt 0.666667 0.500000
vt 0.666667 0.666667
vt 0.666667 0.833333
vt 0.666667 1.000000
vt 0.750000 0.166667
vt 0.750000 0.000000
vt 0.750000 0.333333
vt 0.750000 0.500000
vt 0.750000 0.666667
vt 0.750000 0.833333
vt 0.750000 1.000000
vt 0.833333 0.000000
vt 0.833333 0.166667
vt 0.833333 0.333333
vt 0.833333 0.500000
vt 0.833333 0.666667
vt 0.833333 0.833333
vt 0.833333 1.000000
vt 0.916667 0.166667
vt 0.916667 0.000000
vt 0.916667 0.333333
vt 0.916667 0.500000
vt 0.916667 0.666667
vt 0.916667 0.833333
vt 0.916667 1.000000
vt 1.000000 0.166667
vt 1.000000 0.333333
vt 1.000000 0.500000
vt 1.000000 0.666667
vt 1.000000 0.833333
# 91 texture coordinates

vn 0.000000 0.780868 -0.624696
vn -0.773269 0.632674 -0.042178
vn -0.817719 0.575230 -0.021150
vn -0.857493 0.514496 0.000000
vn 0.000000 0.707107 0.707106
vn 0.871110 0.490000 -0.032667
vn 0.837465 0.546246 -0.016371
vn 0.800000 0.600000 -0.000000
vn 0.000000 0.997785 -0.066519
vn 0.000000 -1.000000 0.000000
vn -0.000000 0.000000 -1.000000
vn -1.000000 0.000000 0.000000
vn 0.000000 0.000000 1.000000
vn 1.000000 0.000000 -0.000000
vn 0.000000 1.000000 0.000000
vn 0.525961 -0.074126 -0.847272
vn 0.000000 -0.087155 -0.996195
vn 0.261945 0.607796 -0.749646
vn -0.000000 0.897296 -0.441429
vn -0.261945 0.607796 -0.749646
vn -0.525961 -0.074126 -0.847272
vn 0.763930 0.401737 -0.504993
vn 0.719681 0.691663 -0.060513
vn 0.354087 0.885736 -0.300157
vn 0.354087 0.924401 0.141790
vn 0.000000 0.960318 0.278909
vn -0.000000 0.996195 -0.087156
vn -0.354087 0.885736 -0.300157
vn -0.354087 0.924401 0.141790
vn -0.719681 0.691663 -0.060513
vn -0.763930 0.401737 -0.504993
vn -0.719681 -0.691663 0.060513
vn -0.763930 -0.483325 -0.427560
vn -0.763930 0.483325 0.427559
vn -0.525962 0.074127 0.847272
vn -0.763931 -0.401737 0.504992
vn -0.261946 0.728738 0.632713
vn 0.261946 0.728738 0.632713
vn 0.525962 0.074127 0.847272
vn 0.000000 0.087156 0.996195
vn 0.261946 -0.607797 0.749645
vn 0.000000 -0.897296 0.441428
vn -0.261946 -0.607797 0.749645
vn -0.354087 -0.885736 0.300157
vn 0.000000 -0.996195 0.087156
vn -0.000000 -0.960318 -0.278909
vn -0.354087 -0.924401 -0.141790
vn 0.354087 -0.885736 0.300157
vn 0.719681 -0.691663 0.060513
vn 0.354087 -0.924401 -0.141790
vn 0.763930 -0.483325 -0.427560
vn 0.261946 -0.728737 -0.632714
vn -0.261946 -0.728737 -0.632714
vn 0.763931 0.483325 0.427559
vn 0.763931 -0.401737 0.504992
vn -0.866025 -0.498097 0.043578
vn -0.500000 -0.862730 0.075479
vn 0.500000 -0.862730 0.075479
vn 0.866025 -0.498098 0.043578
vn 0.866025 0.498098 -0.043578
vn 0.500000 0.862730 -0.075479
vn -0.500000 0.862730 -0.075479
vn -0.866025 0.498098 -0.043578
# 63 normals

g Body
s 1
f 1/1/1 2/2/1 3/3/1
f 2/2/1 4/4/1 3/3/1
s 2
f 3/1/2 4/2/3 5/3/3
f 4/2/3 6/4/4 5/3/3
s 1
f 5/1/5 6/2/5 7/3/5
f 6/2/5 8/4/5 7/3/5
s 2
f 7/1/6 8/2/7 1/3/7
f 8/2/7 2/4/8 1/3/7
s 3
f 7/1/9 1/2/9 5/3/9
f 1/2/9 3/4/9 5/3/9
f 2/1/10 8/2/10 4/3/10
f 8/2/10 6/4/10 4/3/10
# 12 triangles in group

g SolPalet
s 1
f 9/1/11 10/2/11 11/3/11
f 10/2/11 12/4/11 11/3/11
s 2
f 11/1/12 12/2/12 13/3/12
f 12/2/12 14/4/12 13/3/12
s 1
f 13/1/13 14/2/13 15/3/13
f 14/2/13 16/4/13 15/3/13
s 2
f 15/1/14 16/2/14 9/3/14
f 16/2/14 10/4/14 9/3/14
s 3
f 15/1/15 9/2/15 13/3/15
f 9/2/15 11/4/15 13/3/15
f 10/1/10 16/2/10 12/3/10
f 16/2/10 14/4/10 12/3/10
# 12 triangles in group

g SagPalet
s 1
f 17/1/11 18/2/11 19/3/11
f 18/2/11 20/4/11 19/3/11
s 2
f 19/1/12 20/2/12 21/3/12
f 20/2/12 22/4/12 21/3/12
s 1
f 21/1/13 22/2/13 23/3/13
f 22/2/13 24/4/13 23/3/13
s 2
f 23/1/14 24/2/14 17/3/14
f 24/2/14 18/4/14 17/3/14
s 3
f 23/1/15 17/2/15 21/3/15
f 17/2/15 19/4/15 21/3/15
f 18/1/10 24/2/10 20/3/10
f 24/2/10 22/4/10 20/3/10
# 12 triangles in group

g Kapak
s 1
f 25/1/16 26/1/17 27/1/18
f 28/1/19 27/1/18 29/1/20
f 30/1/21 29/1/20 26/1/17
f 27/1/18 26/1/17 29/1/20
f 25/1/16 27/1/18 31/1/22
f 32/1/23 31/1/22 33/1/24
f 28/1/19 33/1/24 27/1/18
f 31/1/22 27/1/18 33/1/24
f 32/1/23 33/1/24 34/1/25
f 35/1/26 34/1/25 36/1/27
f 28/1/19 36/1/27 33/1/24
f 34/1/25 33/1/24 36/1/27
f 28/1/19 37/1/28 36/1/27
f 35/1/26 36/1/27 38/1/29
f 39/1/30 38/1/29 37/1/28
f 36/1/27 37/1/28 38/1/29
f 28/1/19 29/1/20 37/1/28
f 39/1/30 37/1/28 40/1/31
f 30/1/21 40/1/31 29/1/20
f 37/1/28 29/1/20 40/1/31
f 39/1/30 40/1/31 41/1/12
f 42/1/32 41/1/12 43/1/33
f 30/1/21 43/1/33 40/1/31
f 41/1/12 40/1/31 43/1/33
f 39/1/30 41/1/12 44/1/34
f 45/1/35 44/1/34 46/1/36
f 42/1/32 46/1/36 41/1/12
f 44/1/34 41/1/12 46/1/36
f 35/1/26 38/1/29 47/1/37
f 45/1/35 47/1/37 44/1/34
f 39/1/30 44/1/34 38/1/29
f 47/1/37 38/1/29 44/1/34
f 35/1/26 47/1/37 48/1/38
f 49/1/39 48/1/38 50/1/40
f 45/1/35 50/1/40 47/1/37
f 48/1/38 47/1/37 50/1/40
f 49/1/39 50/1/40 51/1/41
f 52/1/42 51/1/41 53/1/43
f 45/1/35 53/1/43 50/1/40
f 51/1/41 50/1/40 53/1/43
f 52/1/42 53/1/43 54/1/44
f 42/1/32 54/1/44 46/1/36
f 45/1/35 46/1/36 53/1/43
f 54/1/44 53/1/43 46/1/36
f 52/1/42 54/1/44 55/1/45
f 56/1/46 55/1/45 57/1/47
f 42/1/32 57/1/47 54/1/44
f 55/1/45 54/1/44 57/1/47
f 52/1/42 55/1/45 58/1/48
f 59/1/49 58/1/48 60/1/50
f 56/1/46 60/1/50 55/1/45
f 58/1/48 55/1/45 60/1/50
f 59/1/49 60/1/50 61/1/51
f 25/1/16 61/1/51 62/1/52
f 56/1/46 62/1/52 60/1/50
f 61/1/51 60/1/50 62/1/52
f 25/1/16 62/1/52 26/1/17
f 30/1/21 26/1/17 63/1/53
f 56/1/46 63/1/53 62/1/52
f 26/1/17 62/1/52 63/1/53
f 56/1/46 57/1/47 63/1/53
f 30/1/21 63/1/53 43/1/33
f 42/1/32 43/1/33 57/1/47
f 63/1/53 57/1/47 43/1/33
f 32/1/23 64/1/14 31/1/22
f 25/1/16 31/1/22 61/1/51
f 59/1/49 61/1/51 64/1/14
f 31/1/22 64/1/14 61/1/51
f 32/1/23 65/1/54 64/1/14
f 59/1/49 64/1/14 66/1/55
f 49/1/39 66/1/55 65/1/54
f 64/1/14 65/1/54 66/1/55
f 32/1/23 34/1/25 65/1/54
f 49/1/39 65/1/54 48/1/38
f 35/1/26 48/1/38 34/1/25
f 65/1/54 34/1/25 48/1/38
f 52/1/42 58/1/48 51/1/41
f 49/1/39 51/1/41 66/1/55
f 59/1/49 66/1/55 58/1/48
f 51/1/41 58/1/48 66/1/55
# 80 triangles in group

g Namlu
s 2
f 67/1/40 74/1/40 152/1/40
f 73/1/17 151/1/17 80/1/17
s 1
f 67/2/12 68/5/12 75/6/56
f 67/2/12 75/6/56 74/7/56
f 68/5/12 69/8/12 75/6/56
f 69/8/12 76/9/56 75/6/56
f 69/8/12 70/10/12 77/11/56
f 69/8/12 77/11/56 76/9/56
f 70/10/12 71/12/12 77/11/56
f 71/12/12 78/13/56 77/11/56
f 71/12/12 72/14/12 79/15/56
f 71/12/12 79/15/56 78/13/56
f 72/14/12 73/1/12 79/15/56
f 73/1/12 80/16/56 79/15/56
s 2
f 74/1/40 81/1/40 152/1/40
f 80/1/17 151/1/17 87/1/17
s 1
f 74/7/56 75/6/56 81/17/57
f 75/6/56 82/18/57 81/17/57
f 75/6/56 76/9/56 83/19/57
f 75/6/56 83/19/57 82/18/57
f 76/9/56 77/11/56 83/19/57
f 77/11/56 84/20/57 83/19/57
f 77/11/56 78/13/56 85/21/57
f 77/11/56 85/21/57 84/20/57
f 78/13/56 79/15/56 85/21/57
f 79/15/56 86/22/57 85/21/57
f 79/15/56 80/16/56 87/23/57
f 79/15/56 87/23/57 86/22/57
s 2
f 81/1/40 88/1/40 152/1/40
f 87/1/17 151/1/17 94/1/17
s 1
f 81/17/57 82/18/57 89/24/45
f 81/17/57 89/24/45 88/25/45
f 82/18/57 83/19/57 89/24/45
f 83/19/57 90/26/45 89/24/45
f 83/19/57 84/20/57 91/27/45
f 83/19/57 91/27/45 90/26/45
f 84/20/57 85/21/57 91/27/45
f 85/21/57 92/28/45 91/27/45
f 85/21/57 86/22/57 93/29/45
f 85/21/57 93/29/45 92/28/45
f 86/22/57 87/23/57 93/29/45
f 87/23/57 94/30/45 93/29/45
s 2
f 88/1/40 95/1/40 152/1/40
f 94/1/17 151/1/17 101/1/17
s 1
f 88/25/45 89/24/45 95/31/58
f 89/24/45 96/32/58 95/31/58
f 89/24/45 90/26/45 97/33/58
f 89/24/45 97/33/58 96/32/58
f 90/26/45 91/27/45 97/33/58
f 91/27/45 98/34/58 97/33/58
f 91/27/45 92/28/45 99/35/58
f 91/27/45 99/35/58 98/34/58
f 92/28/45 93/29/45 99/35/58
f 93/29/45 100/36/58 99/35/58
f 93/29/45 94/30/45 101/37/58
f 93/29/45 101/37/58 100/36/58
s 2
f 95/1/40 102/1/40 152/1/40
f 101/1/17 151/1/17 108/1/17
s 1
f 95/31/58 96/32/58 103/38/59
f 95/31/58 103/38/59 102/39/59
f 96/32/58 97/33/58 103/38/59
f 97/33/58 104/40/59 103/38/59
f 97/33/58 98/34/58 105/41/59
f 97/33/58 105/41/59 104/40/59
f 98/34/58 99/35/58 105/41/59
f 99/35/58 106/42/59 105/41/59
f 99/35/58 100/36/58 107/43/59
f 99/35/58 107/43/59 106/42/59
f 100/36/58 101/37/58 107/43/59
f 101/37/58 108/44/59 107/43/59
s 2
f 102/1/40 109/1/40 152/1/40
f 108/1/17 151/1/17 115/1/17
s 1
f 102/39/59 103/38/59 109/45/14
f 103/38/59 110/46/14 109/45/14
f 103/38/59 104/40/59 111/47/14
f 103/38/59 111/47/14 110/46/14
f 104/40/59 105/41/59 111/47/14
f 105/41/59 112/48/14 111/47/14
f 105/41/59 106/42/59 113/49/14
f 105/41/59 113/49/14 112/48/14
f 106/42/59 107/43/59 113/49/14
f 107/43/59 114/50/14 113/49/14
f 107/43/59 108/44/59 115/51/14
f 107/43/59 115/51/14 114/50/14
s 2
f 109/1/40 116/1/40 152/1/40
f 115/1/17 151/1/17 122/1/17
s 1
f 109/45/14 110/46/14 117/52/60
f 109/45/14 117/52/60 116/53/60
f 110/46/14 111/47/14 117/52/60
f 111/47/14 118/54/60 117/52/60
f 111/47/14 112/48/14 119/55/60
f 111/47/14 119/55/60 118/54/60
f 112/48/14 113/49/14 119/55/60
f 113/49/14 120/56/60 119/55/60
f 113/49/14 114/50/14 121/57/60
f 113/49/14 121/57/60 120/56/60
f 114/50/14 115/51/14 121/57/60
f 115/51/14 122/58/60 121/57/60
s 2
f 116/1/40 123/1/40 152/1/40
f 122/1/17 151/1/17 129/1/17
s 1
f 116/53/60 117/52/60 123/59/61
f 117/52/60 124/60/61 123/59/61
f 117/52/60 118/54/60 125/61/61
f 117/52/60 125/61/61 124/60/61
f 118/54/60 119/55/60 125/61/61
f 119/55/60 126/62/61 125/61/61
f 119/55/60 120/56/60 127/63/61
f 119/55/60 127/63/61 126/62/61
f 120/56/60 121/57/60 127/63/61
f 121/57/60 128/64/61 127/63/61
f 121/57/60 122/58/60 129/65/61
f 121/57/60 129/65/61 128/64/61
s 2
f 123/1/40 130/1/40 152/1/40
f 129/1/17 151/1/17 136/1/17
s 1
f 123/59/61 124/60/61 131/66/27
f 123/59/61 131/66/27 130/67/27
f 124/60/61 125/61/61 131/66/27
f 125/61/61 132/68/27 131/66/27
f 125/61/61 126/62/61 133/69/27
f 125/61/61 133/69/27 132/68/27
f 126/62/61 127/63/61 133/69/27
f 127/63/61 134/70/27 133/69/27
f 127/63/61 128/64/61 135/71/27
f 127/63/61 135/71/27 134/70/27
f 128/64/61 129/65/61 135/71/27
f 129/65/61 136/72/27 135/71/27
s 2
f 130/1/40 137/1/40 152/1/40
f 136/1/17 151/1/17 143/1/17
s 1
f 130/67/27 131/66/27 137/73/62
f 131/66/27 138/74/62 137/73/62
f 131/66/27 132/68/27 139/75/62
f 131/66/27 139/75/62 138/74/62
f 132/68/27 133/69/27 139/75/62
f 133/69/27 140/76/62 139/75/62
f 133/69/27 134/70/27 141/77/62
f 133/69/27 141/77/62 140/76/62
f 134/70/27 135/71/27 141/77/62
f 135/71/27 142/78/62 141/77/62
f 135/71/27 136/72/27 143/79/62
f 135/71/27 143/79/62 142/78/62
s 2
f 137/1/40 144/1/40 152/1/40
f 143/1/17 151/1/17 150/1/17
s 1
f 137/73/62 138/74/62 145/80/63
f 137/73/62 145/80/63 144/81/63
f 138/74/62 139/75/62 145/80/63
f 139/75/62 146/82/63 145/80/63
f 139/75/62 140/76/62 147/83/63
f 139/75/62 147/83/63 146/82/63
f 140/76/62 141/77/62 147/83/63
f 141/77/62 148/84/63 147/83/63
f 141/77/62 142/78/62 149/85/63
f 141/77/62 149/85/63 148/84/63
f 142/78/62 143/79/62 149/85/63
f 143/79/62 150/86/63 149/85/63
s 2
f 144/1/40 67/1/40 152/1/40
f 150/1/17 151/1/17 73/1/17
s 1
f 144/81/63 145/80/63 67/4/12
f 145/80/63 68/87/12 67/4/12
f 145/80/63 146/82/63 69/88/12
f 145/80/63 69/88/12 68/87/12
f 146/82/63 147/83/63 69/88/12
f 147/83/63 70/89/12 69/88/12
f 147/83/63 148/84/63 71/90/12
f 147/83/63 71/90/12 70/89/12
f 148/84/63 149/85/63 71/90/12
f 149/85/63 72/91/12 71/90/12
f 149/85/63 150/86/63 73/3/12
f 149/85/63 73/3/12 72/91/12
# 168 triangles in group

# 284 triangles total

