# Wavefront OBJ exported by MilkShape 3D

v -0.384616 8.755507 -3.888999
v -0.384616 8.609664 -5.072738
v -0.384616 7.765726 -4.483001
v -0.384616 6.882371 -3.356205
v -0.384616 8.479385 -2.410393
v -0.384616 6.413261 -3.306853
v -0.384616 7.928116 -1.622296
v -0.384616 6.905526 -1.008441
v -0.384616 5.474070 -1.039048
v -0.384616 4.599397 -1.298763
v -0.384616 5.782999 -3.725508
v -0.384616 3.661176 -1.200064
v -0.384616 3.013276 -3.407489
v -0.384616 3.787042 -4.309596
v -0.384616 5.797201 -4.553034
v -0.384616 4.537786 -5.278552
v -0.384616 6.282718 -5.206314
v -0.384616 5.626132 -6.027227
v -0.384616 7.079505 -6.041563
v -0.384616 7.032360 -6.287074
v -0.384616 2.438983 -2.686248
v -0.384616 0.859611 -1.843285
v -0.384616 2.283480 -0.314365
v -0.384616 -0.629883 -0.956485
v -0.384616 0.506840 0.933057
v -0.384616 -2.807673 0.429062
v -0.384616 -0.982652 1.819854
v -0.384616 -4.185373 1.314759
v -0.384616 -2.381164 2.862289
v -0.384616 -5.584984 2.245395
v -0.384616 -6.067196 3.234068
v -0.384616 -5.612285 4.012246
v -0.384616 -4.625809 4.270857
v -0.384616 -3.625143 3.701948
v 0.469373 7.765726 -4.483001
v 0.469373 8.609664 -5.072738
v 0.469373 8.755507 -3.888999
v 0.469373 6.882371 -3.356205
v 0.469373 8.479385 -2.410393
v 0.469373 6.413261 -3.306853
v 0.469373 7.928116 -1.622296
v 0.469373 6.905526 -1.008441
v 0.469373 5.474070 -1.039048
v 0.469373 4.599397 -1.298763
v 0.469373 5.782999 -3.725508
v 0.469373 3.661176 -1.200064
v 0.469373 3.013276 -3.407489
v 0.469373 3.787042 -4.309596
v 0.469373 5.797201 -4.553034
v 0.469373 4.537786 -5.278552
v 0.469373 6.282718 -5.206314
v 0.469373 5.626132 -6.027227
v 0.469373 7.079505 -6.041563
v 0.469373 7.032360 -6.287074
v 0.469373 2.438983 -2.686248
v 0.469373 0.859611 -1.843285
v 0.469373 2.283480 -0.314365
v 0.469373 -0.629883 -0.956485
v 0.469373 0.506840 0.933057
v 0.469373 -2.807673 0.429062
v 0.469373 -0.982652 1.819854
v 0.469373 -4.185373 1.314759
v 0.469373 -2.381164 2.862289
v 0.469373 -5.584984 2.245395
v 0.469373 -6.067196 3.234068
v 0.469373 -4.625809 4.270857
v 0.469373 -5.612285 4.012246
v 0.469373 -3.625143 3.701948
# 68 vertices

vt 0.000000 1.000000
# 1 texture coordinates

vn -0.545777 0.450543 0.706497
vn -0.492251 0.695153 -0.523881
vn -0.578664 -0.708043 -0.404751
vn -0.837523 -0.534507 -0.113391
vn -0.518173 0.139327 0.843851
vn -0.830716 -0.476465 -0.287909
vn -0.481218 0.087017 0.872271
vn -0.486042 -0.360575 0.796083
vn -0.523849 -0.638696 0.563605
vn -0.657733 -0.736037 0.160114
vn -0.726952 0.088517 -0.680959
vn -0.598131 -0.509181 0.618849
vn -0.511901 -0.595175 -0.619455
vn -0.439964 -0.296061 -0.847809
vn -0.660507 0.700415 -0.270462
vn -0.444217 -0.124815 -0.887182
vn -0.688306 0.722973 0.059538
vn -0.443036 0.090376 -0.891937
vn -0.635962 0.769302 0.061043
vn -0.407300 0.725974 -0.554138
vn -0.532388 -0.747426 -0.397388
vn -0.756201 -0.607195 -0.243874
vn -0.459564 -0.031258 0.887595
vn -0.726051 -0.637002 -0.258994
vn -0.474802 -0.065947 0.877618
vn -0.770114 -0.608596 -0.191142
vn -0.445320 0.027166 0.894960
vn -0.760679 -0.619211 -0.194792
vn -0.450141 0.026671 0.892559
vn -0.630012 -0.691520 -0.353390
vn -0.787131 -0.199998 -0.583461
vn -0.336557 -0.666451 0.665261
vn -0.694433 0.198258 0.691706
vn -0.647949 0.562455 0.513621
vn 0.530720 -0.842767 -0.089888
vn 0.492250 -0.075363 -0.867185
vn 0.678876 0.617099 0.397889
vn 0.857693 -0.419761 0.296921
vn 0.672260 0.420797 0.609095
vn 0.668605 -0.731992 -0.130981
vn 0.551952 0.389117 0.737521
vn 0.564547 0.008514 0.825357
vn 0.572617 -0.358258 0.737401
vn 0.734454 -0.515476 0.441431
vn 0.587746 -0.051989 -0.807373
vn 0.741094 -0.292182 0.604491
vn 0.519124 -0.753896 -0.402680
vn 0.561284 -0.401867 -0.723508
vn 0.581661 0.652035 -0.486334
vn 0.578355 -0.309845 -0.754653
vn 0.590852 0.766994 -0.250227
vn 0.573047 -0.103940 -0.812904
vn 0.535224 0.713977 -0.451412
vn 0.407300 0.251973 -0.877848
vn 0.501059 -0.818921 -0.279835
vn 0.653079 -0.741275 0.154917
vn 0.579514 0.136985 0.803367
vn 0.624190 -0.775953 0.091014
vn 0.594919 0.129614 0.793266
vn 0.672667 -0.702094 0.233629
vn 0.564362 0.161569 0.809562
vn 0.660758 -0.718426 0.217399
vn 0.604799 0.153460 0.781453
vn 0.589395 -0.804357 0.074988
vn 0.910048 -0.375987 0.174489
vn 0.674508 0.641710 0.365029
vn 0.336557 -0.461246 0.820964
vn 0.695266 0.691616 0.195636
# 68 normals

g Regroup01
s 1
f 1/1/1 2/1/2 3/1/3
f 3/1/3 4/1/4 1/1/1
f 4/1/4 5/1/5 1/1/1
f 4/1/4 6/1/6 5/1/5
f 6/1/6 7/1/7 5/1/5
f 6/1/6 8/1/8 7/1/7
f 6/1/6 9/1/9 8/1/8
f 6/1/6 10/1/10 9/1/9
f 6/1/6 11/1/11 10/1/10
f 11/1/11 12/1/12 10/1/10
f 11/1/11 13/1/13 12/1/12
f 11/1/11 14/1/14 13/1/13
f 11/1/11 15/1/15 14/1/14
f 15/1/15 16/1/16 14/1/14
f 15/1/15 17/1/17 16/1/16
f 16/1/16 17/1/17 18/1/18
f 17/1/17 19/1/19 18/1/18
f 19/1/19 20/1/20 18/1/18
f 13/1/13 21/1/21 12/1/12
f 21/1/21 22/1/22 12/1/12
f 22/1/22 23/1/23 12/1/12
f 22/1/22 24/1/24 23/1/23
f 24/1/24 25/1/25 23/1/23
f 24/1/24 26/1/26 25/1/25
f 26/1/26 27/1/27 25/1/25
f 26/1/26 28/1/28 27/1/27
f 28/1/28 29/1/29 27/1/27
f 28/1/28 30/1/30 29/1/29
f 30/1/30 31/1/31 29/1/29
f 31/1/31 32/1/32 33/1/33
f 31/1/31 33/1/33 34/1/34
f 31/1/31 34/1/34 29/1/29
f 35/1/35 36/1/36 37/1/37
f 37/1/37 38/1/38 35/1/35
f 37/1/37 39/1/39 38/1/38
f 39/1/39 40/1/40 38/1/38
f 39/1/39 41/1/41 40/1/40
f 41/1/41 42/1/42 40/1/40
f 42/1/42 43/1/43 40/1/40
f 43/1/43 44/1/44 40/1/40
f 44/1/44 45/1/45 40/1/40
f 44/1/44 46/1/46 45/1/45
f 46/1/46 47/1/47 45/1/45
f 47/1/47 48/1/48 45/1/45
f 48/1/48 49/1/49 45/1/45
f 48/1/48 50/1/50 49/1/49
f 50/1/50 51/1/51 49/1/49
f 52/1/52 51/1/51 50/1/50
f 52/1/52 53/1/53 51/1/51
f 52/1/52 54/1/54 53/1/53
f 46/1/46 55/1/55 47/1/47
f 46/1/46 56/1/56 55/1/55
f 46/1/46 57/1/57 56/1/56
f 57/1/57 58/1/58 56/1/56
f 57/1/57 59/1/59 58/1/58
f 59/1/59 60/1/60 58/1/58
f 59/1/59 61/1/61 60/1/60
f 61/1/61 62/1/62 60/1/60
f 61/1/61 63/1/63 62/1/62
f 63/1/63 64/1/64 62/1/62
f 63/1/63 65/1/65 64/1/64
f 66/1/66 67/1/67 65/1/65
f 68/1/68 66/1/66 65/1/65
f 63/1/63 68/1/68 65/1/65
f 36/1/36 35/1/35 3/1/3
f 3/1/3 2/1/2 36/1/36
f 37/1/37 36/1/36 2/1/2
f 2/1/2 1/1/1 37/1/37
f 35/1/35 37/1/37 1/1/1
f 1/1/1 3/1/3 35/1/35
f 38/1/38 37/1/37 1/1/1
f 1/1/1 4/1/4 38/1/38
f 35/1/35 38/1/38 4/1/4
f 4/1/4 3/1/3 35/1/35
f 39/1/39 37/1/37 1/1/1
f 1/1/1 5/1/5 39/1/39
f 38/1/38 39/1/39 5/1/5
f 5/1/5 4/1/4 38/1/38
f 40/1/40 39/1/39 5/1/5
f 5/1/5 6/1/6 40/1/40
f 38/1/38 40/1/40 6/1/6
f 6/1/6 4/1/4 38/1/38
f 41/1/41 39/1/39 5/1/5
f 5/1/5 7/1/7 41/1/41
f 40/1/40 41/1/41 7/1/7
f 7/1/7 6/1/6 40/1/40
f 42/1/42 41/1/41 7/1/7
f 7/1/7 8/1/8 42/1/42
f 40/1/40 42/1/42 8/1/8
f 8/1/8 6/1/6 40/1/40
f 43/1/43 42/1/42 8/1/8
f 8/1/8 9/1/9 43/1/43
f 40/1/40 43/1/43 9/1/9
f 9/1/9 6/1/6 40/1/40
f 44/1/44 43/1/43 9/1/9
f 9/1/9 10/1/10 44/1/44
f 40/1/40 44/1/44 10/1/10
f 10/1/10 6/1/6 40/1/40
f 45/1/45 44/1/44 10/1/10
f 10/1/10 11/1/11 45/1/45
f 40/1/40 45/1/45 11/1/11
f 11/1/11 6/1/6 40/1/40
f 46/1/46 44/1/44 10/1/10
f 10/1/10 12/1/12 46/1/46
f 45/1/45 46/1/46 12/1/12
f 12/1/12 11/1/11 45/1/45
f 47/1/47 46/1/46 12/1/12
f 12/1/12 13/1/13 47/1/47
f 45/1/45 47/1/47 13/1/13
f 13/1/13 11/1/11 45/1/45
f 48/1/48 47/1/47 13/1/13
f 13/1/13 14/1/14 48/1/48
f 45/1/45 48/1/48 14/1/14
f 14/1/14 11/1/11 45/1/45
f 49/1/49 48/1/48 14/1/14
f 14/1/14 15/1/15 49/1/49
f 45/1/45 49/1/49 15/1/15
f 15/1/15 11/1/11 45/1/45
f 50/1/50 48/1/48 14/1/14
f 14/1/14 16/1/16 50/1/50
f 49/1/49 50/1/50 16/1/16
f 16/1/16 15/1/15 49/1/49
f 51/1/51 50/1/50 16/1/16
f 16/1/16 17/1/17 51/1/51
f 49/1/49 51/1/51 17/1/17
f 17/1/17 15/1/15 49/1/49
f 51/1/51 52/1/52 18/1/18
f 18/1/18 17/1/17 51/1/51
f 52/1/52 50/1/50 16/1/16
f 16/1/16 18/1/18 52/1/52
f 53/1/53 52/1/52 18/1/18
f 18/1/18 19/1/19 53/1/53
f 51/1/51 53/1/53 19/1/19
f 19/1/19 17/1/17 51/1/51
f 54/1/54 52/1/52 18/1/18
f 18/1/18 20/1/20 54/1/54
f 53/1/53 54/1/54 20/1/20
f 20/1/20 19/1/19 53/1/53
f 55/1/55 46/1/46 12/1/12
f 12/1/12 21/1/21 55/1/55
f 47/1/47 55/1/55 21/1/21
f 21/1/21 13/1/13 47/1/47
f 56/1/56 46/1/46 12/1/12
f 12/1/12 22/1/22 56/1/56
f 55/1/55 56/1/56 22/1/22
f 22/1/22 21/1/21 55/1/55
f 57/1/57 46/1/46 12/1/12
f 12/1/12 23/1/23 57/1/57
f 56/1/56 57/1/57 23/1/23
f 23/1/23 22/1/22 56/1/56
f 58/1/58 57/1/57 23/1/23
f 23/1/23 24/1/24 58/1/58
f 56/1/56 58/1/58 24/1/24
f 24/1/24 22/1/22 56/1/56
f 59/1/59 57/1/57 23/1/23
f 23/1/23 25/1/25 59/1/59
f 58/1/58 59/1/59 25/1/25
f 25/1/25 24/1/24 58/1/58
f 60/1/60 59/1/59 25/1/25
f 25/1/25 26/1/26 60/1/60
f 58/1/58 60/1/60 26/1/26
f 26/1/26 24/1/24 58/1/58
f 61/1/61 59/1/59 25/1/25
f 25/1/25 27/1/27 61/1/61
f 60/1/60 61/1/61 27/1/27
f 27/1/27 26/1/26 60/1/60
f 62/1/62 61/1/61 27/1/27
f 27/1/27 28/1/28 62/1/62
f 60/1/60 62/1/62 28/1/28
f 28/1/28 26/1/26 60/1/60
f 63/1/63 61/1/61 27/1/27
f 27/1/27 29/1/29 63/1/63
f 62/1/62 63/1/63 29/1/29
f 29/1/29 28/1/28 62/1/62
f 64/1/64 63/1/63 29/1/29
f 29/1/29 30/1/30 64/1/64
f 62/1/62 64/1/64 30/1/30
f 30/1/30 28/1/28 62/1/62
f 65/1/65 63/1/63 29/1/29
f 29/1/29 31/1/31 65/1/65
f 64/1/64 65/1/65 31/1/31
f 31/1/31 30/1/30 64/1/64
f 67/1/67 66/1/66 33/1/33
f 33/1/33 32/1/32 67/1/67
f 65/1/65 67/1/67 32/1/32
f 32/1/32 31/1/31 65/1/65
f 66/1/66 65/1/65 31/1/31
f 31/1/31 33/1/33 66/1/66
f 66/1/66 68/1/68 34/1/34
f 34/1/34 33/1/33 66/1/66
f 68/1/68 65/1/65 31/1/31
f 31/1/31 34/1/34 68/1/68
f 68/1/68 63/1/63 29/1/29
f 29/1/29 34/1/34 68/1/68
# 194 triangles in group

# 194 triangles total

